<svg width="683" height="683" viewBox="0 0 683 683" fill="none" xmlns="http://www.w3.org/2000/svg">
<g clip-path="url(#clip0_1067_20)">
<path d="M544.668 7.06668C543.601 4.80001 541.735 2.26668 540.135 1.46668C538.401 0.400009 506.401 7.68155e-06 437.335 4.66255e-06L337.201 2.85581e-07L334.001 3.33333C331.735 5.46667 330.668 8 330.668 11.3333C330.668 14.6667 331.735 17.2 334.001 19.3333L337.201 22.6667L437.601 22.6667C547.468 22.6667 542.268 23.0667 545.068 14.9333C546.001 12.2667 545.868 10 544.668 7.06668Z" fill="black"/>
<path d="M544.668 667.067C543.601 664.8 541.735 662.267 540.135 661.467C538.401 660.4 506.401 660 437.335 660L337.201 660L334.001 663.333C331.735 665.467 330.668 668 330.668 671.333C330.668 674.667 331.735 677.2 334.001 679.333L337.201 682.667L437.601 682.667C547.468 682.667 542.268 683.067 545.068 674.933C546.001 672.267 545.868 670 544.668 667.067Z" fill="black"/>
<path d="M509.732 102.933C505.599 98.1334 438.132 46.6667 434.799 45.7334C429.999 44.5334 425.599 47.3334 394.665 71.3334C353.599 103.067 353.332 103.467 353.332 108.133C353.332 118.933 357.065 120 392.799 120L421.332 120L421.332 341.333L421.332 562.667L392.799 562.667C357.065 562.667 353.332 563.733 353.332 574.533C353.332 579.2 353.599 579.6 394.665 611.333C425.599 635.333 429.999 638.133 434.799 636.933C438.132 636 505.599 584.533 509.732 579.733C512.932 576 512.532 571.467 508.799 567.067L505.599 563.333L474.799 562.933L443.999 562.533L443.999 341.333L443.999 120.133L474.799 119.733L505.599 119.333L508.799 115.6C512.532 111.2 512.932 106.667 509.732 102.933ZM413.999 98.4001L395.865 98.0001L411.599 85.8667C420.265 79.2001 428.532 72.9334 430.132 72.0001C432.665 70.4001 434.399 71.4667 450.799 84.1334L468.665 98.0001L450.399 98.4001C440.265 98.5334 423.865 98.5334 413.999 98.4001ZM450.532 598.667C441.065 606.133 432.532 612 431.599 611.6C430.132 611.067 399.865 588.133 396.799 585.2C395.999 584.533 410.665 584 431.732 584C451.732 584 467.999 584.267 467.999 584.667C467.999 584.933 460.132 591.333 450.532 598.667Z" fill="black"/>
<path d="M294.667 7.20017C291.734 -0.133162 293.334 0.000171031 216.267 0.000167662C167.867 0.000165546 144.267 0.400165 142.401 1.46683C135.601 5.06683 136.001 -12.5332 136.001 341.334C136 695.2 135.6 677.6 142.4 681.2C144.267 682.267 168.001 682.667 216.534 682.667L287.867 682.667L291.6 679.467L295.334 676.267L295.601 343.067C295.734 157.2 295.334 8.80017 294.667 7.20017ZM259.734 57.3335C244.667 57.4668 242.267 58.4002 239.867 65.0668C238.801 68.2668 238.934 70.0002 240.534 73.0668C243.201 78.2668 248.534 80.0002 262.134 80.0002L273.334 80.0002L273.334 102.667L273.334 125.334L248.801 125.334C224.801 125.334 224.001 125.467 220.534 128.534C215.734 132.534 215.334 140 219.734 144.4C222.534 147.2 223.867 147.334 248.001 147.734L273.334 148.134L273.334 170.667L273.334 193.067L259.334 193.6C247.067 194 245.067 194.4 242.401 196.934C238.001 201.334 238.401 208.8 243.201 212.8C246.534 215.734 248.001 216 260.134 216L273.334 216L273.334 238.667L273.334 261.334L249.734 261.334C228.667 261.334 225.467 261.6 221.734 263.867C214.934 268.134 214.667 277.2 221.201 282.267C222.667 283.467 230.801 283.867 248.401 284L273.334 284L273.334 306.667L273.334 329.334L263.067 329.334C248.401 329.334 243.067 331.067 240.401 336.8C238.267 340.934 238.267 341.734 240.401 345.867C243.067 351.6 248.401 353.334 263.067 353.334L273.334 353.334L273.334 376L273.334 398.667L248.267 398.667C224.934 398.667 222.934 398.8 220.267 401.334C214.001 407.2 215.467 416.134 223.334 419.334C226.667 420.8 233.734 421.334 250.667 421.334L273.334 421.334L273.334 444L273.334 466.667L260.134 466.667C248.001 466.667 246.534 466.934 243.201 469.867C238.401 473.867 238.001 481.334 242.401 485.734C245.067 488.267 247.067 488.667 259.334 489.067L273.334 489.6L273.334 512.134L273.334 534.667L248.801 534.667C224.801 534.667 224.001 534.8 220.534 537.867C215.334 542.267 215.334 549.734 220.534 554.134C224.001 557.2 224.801 557.334 248.801 557.334L273.334 557.334L273.334 580L273.334 602.667L262.134 602.667C248.534 602.667 243.201 604.4 240.534 609.6C238.934 612.667 238.801 614.4 239.867 617.6C242.267 624.267 244.667 625.2 259.734 625.334L273.334 625.334L273.334 642.667L273.334 660L216.401 659.734L159.334 659.334L159.334 341.334L159.334 23.3335L216.401 22.9335L273.334 22.6668L273.334 40.0002L273.334 57.3335L259.734 57.3335Z" fill="black"/>
</g>
<defs>
<clipPath id="clip0_1067_20">
<rect width="682.667" height="682.667" fill="white" transform="translate(682.668) rotate(90)"/>
</clipPath>
</defs>
</svg>
