<?xml version="1.0" standalone="no"?>
<!DOCTYPE svg PUBLIC "-//W3C//DTD SVG 20010904//EN"
 "http://www.w3.org/TR/2001/REC-SVG-20010904/DTD/svg10.dtd">
<svg version="1.0" xmlns="http://www.w3.org/2000/svg"
 width="512.000000pt" height="512.000000pt" viewBox="0 0 512.000000 512.000000"
 preserveAspectRatio="xMidYMid meet">

<g transform="translate(0.000000,512.000000) scale(0.100000,-0.100000)"
fill="#000000" stroke="none">
<path d="M867 4588 c-9 -7 -82 -100 -162 -207 -102 -137 -145 -202 -145 -221
0 -19 43 -84 145 -221 80 -107 153 -200 162 -206 27 -21 72 -15 98 12 44 43
35 69 -70 208 l-95 127 1236 0 c988 0 1235 -3 1227 -12 -5 -7 -46 -59 -91
-115 -45 -56 -87 -113 -93 -126 -23 -51 38 -117 95 -103 38 9 346 397 346 436
0 38 -308 427 -345 436 -52 13 -113 -41 -101 -90 3 -13 45 -73 92 -132 48 -60
92 -115 97 -121 8 -10 -239 -13 -1227 -13 l-1236 0 95 127 c105 139 114 165
70 208 -26 27 -71 33 -98 13z"/>
<path d="M655 3486 c-41 -18 -83 -69 -90 -109 -3 -18 -4 -654 -3 -1414 3
-1378 3 -1382 24 -1409 11 -15 33 -37 48 -48 27 -21 29 -21 1416 -21 1387 0
1389 0 1416 21 15 11 37 33 48 48 21 27 21 29 21 1436 0 1407 0 1409 -21 1436
-11 15 -33 37 -48 48 -27 21 -31 21 -1404 23 -1130 2 -1382 0 -1407 -11z
m2725 -1496 l0 -1350 -1330 0 -1330 0 0 1350 0 1350 1330 0 1330 0 0 -1350z"/>
<path d="M4012 3280 c-146 -116 -204 -168 -208 -187 -14 -56 48 -113 101 -93
14 5 72 47 128 92 56 45 108 86 115 91 9 8 12 -239 12 -1227 l0 -1236 -127 95
c-139 105 -165 114 -208 70 -27 -26 -33 -71 -12 -98 6 -9 99 -82 206 -162 137
-102 202 -145 221 -145 19 0 84 43 221 145 107 80 200 153 207 162 20 27 14
72 -13 98 -43 44 -69 35 -208 -70 l-127 -95 0 1236 c0 988 3 1235 13 1227 6
-5 58 -46 114 -91 56 -45 114 -87 128 -92 53 -20 115 37 101 94 -10 39 -396
346 -435 346 -21 0 -79 -40 -229 -160z"/>
</g>
</svg>
